2.2Hz3min_grf.mot
version=1
nRows=17
nColumns 19
inDegrees=yes
endheader
time	1_ground_force_vx	1_ground_force_vy	1_ground_force_vz	1_ground_force_px	1_ground_force_py	1_ground_force_pz	1_ground_torque_x	1_ground_torque_y	1_ground_torque_z	2_ground_force_vx	2_ground_force_vy	2_ground_force_vz	2_ground_force_px	2_ground_force_py	2_ground_force_pz	2_ground_torque_x	2_ground_torque_y	2_ground_torque_z
            1.253500	           12.332804	          593.564809	          -27.292811	           -0.283205	            0.006261	           -0.416379	            0.013840	            0.666107	           -0.030628	          -10.450743	          718.945648	           37.671385	           -0.232814	            0.005637	           -0.696041	            0.008448	           -0.581203	           -0.030454
            1.254000	           12.793617	          589.235769	          -26.670518	           -0.283118	            0.006262	           -0.416622	            0.015991	            0.736520	           -0.033337	          -10.110536	          715.450989	           36.814055	           -0.232816	            0.005637	           -0.695972	            0.008438	           -0.597066	           -0.030722
            1.254500	           12.795444	          586.709752	          -26.131068	           -0.282796	            0.006262	           -0.416611	            0.013851	            0.635089	           -0.028286	           -9.627929	          711.405647	           35.626198	           -0.232845	            0.005636	           -0.695689	            0.008547	           -0.631501	           -0.031625
            1.255000	           12.798121	          582.019637	          -25.417471	           -0.282932	            0.006263	           -0.416759	            0.015327	            0.697023	           -0.030440	           -9.422770	          706.435726	           35.186025	           -0.232639	            0.005636	           -0.695411	            0.007767	           -0.582307	           -0.029003
            1.255500	           12.983599	          578.592100	          -24.836485	           -0.282594	            0.006264	           -0.416895	            0.015893	            0.708235	           -0.030401	           -8.802169	          703.126618	           34.235376	           -0.232585	            0.005636	           -0.695400	            0.007962	           -0.635994	           -0.030967
            1.256000	           13.398177	          575.164803	          -24.301924	           -0.282294	            0.006264	           -0.416933	            0.018757	            0.805210	           -0.034022	           -8.510142	          700.000193	           33.379381	           -0.232589	            0.005636	           -0.695453	            0.007402	           -0.608863	           -0.029034
            1.256500	           13.079252	          571.196672	          -23.813718	           -0.282104	            0.006265	           -0.417235	            0.016872	            0.736824	           -0.030719	           -8.308305	          695.951036	           32.942493	           -0.232375	            0.005636	           -0.695270	            0.007147	           -0.598692	           -0.028339
            1.257000	           13.264795	          567.408542	          -23.234279	           -0.281951	            0.006265	           -0.417115	            0.017330	            0.741296	           -0.030355	           -7.822314	          690.984428	           31.892135	           -0.232159	            0.005636	           -0.694928	            0.006668	           -0.589062	           -0.027188
            1.257500	           13.358751	          563.079628	          -22.656930	           -0.281848	            0.006266	           -0.417447	            0.018614	            0.784601	           -0.031570	           -7.668657	          687.303506	           31.456581	           -0.232269	            0.005635	           -0.694758	            0.006500	           -0.582552	           -0.026662
            1.258000	           13.543983	          560.373349	          -22.118709	           -0.281805	            0.006266	           -0.417321	            0.017409	            0.720272	           -0.028430	           -6.812416	          683.626460	           30.645304	           -0.232152	            0.005635	           -0.694862	            0.007038	           -0.706269	           -0.031660
            1.258500	           13.271162	          556.224660	          -21.539677	           -0.281646	            0.006266	           -0.417372	            0.017563	            0.736086	           -0.028505	           -6.705753	          679.946418	           29.881273	           -0.231961	            0.005636	           -0.694773	            0.006480	           -0.657031	           -0.028874
            1.259000	           13.594378	          553.517622	          -20.818374	           -0.281479	            0.006265	           -0.417156	            0.019685	            0.801491	           -0.030145	           -6.361599	          675.347249	           28.926145	           -0.231990	            0.005634	           -0.694300	            0.005898	           -0.626141	           -0.026819
            1.259500	           13.596111	          549.009377	          -20.470850	           -0.281358	            0.006266	           -0.417431	            0.020811	            0.840349	           -0.031334	           -5.839269	          673.326179	           28.167848	           -0.232019	            0.005635	           -0.694523	            0.005330	           -0.614594	           -0.025711
            1.260000	           14.011717	          544.318753	          -19.620709	           -0.281151	            0.006268	           -0.417932	            0.022587	            0.877430	           -0.031628	           -5.494327	          668.541804	           27.493632	           -0.231820	            0.005634	           -0.694146	            0.005144	           -0.625857	           -0.025738
            1.260500	           13.737901	          541.253095	          -19.358031	           -0.280792	            0.006268	           -0.417765	            0.019369	            0.763123	           -0.027293	           -4.964645	          664.494791	           26.821964	           -0.231703	            0.005634	           -0.693974	            0.004838	           -0.647486	           -0.026135
            1.261000	           13.877550	          538.366118	          -18.728757	           -0.280858	            0.006267	           -0.417608	            0.020636	            0.800544	           -0.027849	           -4.529224	          660.630682	           26.385633	           -0.231815	            0.005634	           -0.694010	            0.004410	           -0.643211	           -0.025690
            1.261500	           13.880000	          533.676397	          -18.106872	           -0.280892	            0.006269	           -0.418037	            0.019962	            0.767538	           -0.026041	           -4.422478	          656.950093	           25.809315	           -0.231584	            0.005634	           -0.693856	            0.004190	           -0.622470	           -0.024455
